<svg id="intro_-_w" data-name="intro - w" xmlns="http://www.w3.org/2000/svg" viewBox="0 0 856.5 549"><defs><style>.cls-1{fill:#fff;}</style></defs><title>Plan de travail 1</title><path class="cls-1" d="M23.34,387.05c0-3,.9-3.71,3.78-3.7,25.37.11,50.74-.24,76.1.17,16.36.27,32.72.17,49.08.21,3.24,0,3.89,1.1,3.89,4.09q-.13,67.47,0,135c0,3.19-1,3.93-4,3.92q-62.41-.13-124.83,0c-3.09,0-4-.79-4-4C23.47,500.13,23.47,409.66,23.34,387.05Z"/><path class="cls-1" d="M325.56,522.54c0,3.06-.77,4-3.94,4q-62.22-.15-124.44,0c-3.07,0-3.74-1-3.73-3.86q.11-67.47,0-134.94c0-2.89.72-3.84,3.76-3.84q62.22.15,124.43,0c3.2,0,3.95,1,3.93,4.05C325.45,410.47,325.45,500.18,325.56,522.54Z"/><path class="cls-1" d="M665.17,523.12c0,3.35-.86,4-4.1,4q-147.33-.15-294.67,0c-3.16,0-4.16-.56-4.16-4q.17-158,0-316c0-3.16.82-3.84,3.9-3.84q147.52.13,295.05,0c3.58,0,3.95,1.18,3.94,4.22C665.06,260.06,665,470.51,665.17,523.12Z"/><path class="cls-1" d="M701.35,387.14c0-2.85.61-3.82,3.68-3.8,26.86.13,110.57.34,125.55.41,2.79,0,3.61.8,3.6,3.6q-.12,67.84,0,135.7c0,3.18-1.2,3.63-3.93,3.62q-62.61-.09-125.21,0c-3.08,0-3.72-1-3.7-3.86C701.46,500.22,701.46,409.76,701.35,387.14Z"/><path class="cls-1" d="M701.93,207.88c0-3.17,1-3.95,4-3.94q62,.13,124.07,0c3,0,4,.75,4,3.93q-.15,67.47,0,134.94c0,3-1,3.75-3.85,3.75q-62.22-.13-124.43,0c-3.32,0-3.86-1.2-3.85-4.13C702.05,320.08,702.06,230.37,701.93,207.88Z"/><path class="cls-1" d="M536.56,166.58c-3.19,0-4.17-.6-4.16-4q.21-67.29,0-134.6c0-3.42,1-4,4.15-4q146.79.13,293.58,0c3,0,4,.63,4,3.84q-.18,67.48,0,135c0,3.2-.91,3.84-4,3.84C781.14,166.48,585.42,166.48,536.56,166.58Z"/><path class="cls-1" d="M495.07,162.56c0,3.09-.83,4-4,4q-62-.15-124.07,0c-3.43,0-4.1-1.09-4.1-4.27q.15-67.09,0-134.18c0-3.28.82-4.22,4.16-4.21q61.85.18,123.69,0c3.59,0,4.31,1.14,4.29,4.45C494.94,50.61,494.94,140.07,495.07,162.56Z"/><path class="cls-1" d="M23.52,27.75c0-3.44.89-4.23,4.26-4.22q146.63.15,293.25,0c3.53,0,4.8.52,4.79,4.55q-.21,157.13,0,314.24c0,3.65-.89,4.45-4.48,4.45q-146.62-.17-293.24,0c-3.54,0-4.55-.73-4.54-4.43C23.68,289.87,23.64,80.12,23.52,27.75Z"/></svg>